# xmcd
#
# Track frame offsets:
#	150
#	13390
#	25727
#	35922
#	47514
#	58048
#	72992
#	89198
#	102471
#	116643
#	128094
#	140147
#	152791
#	164622
#	178928
#	189950
#	203345
#	214395
#
# Disc length: 3006 seconds
#
# Revision: 1
# Processed by: cddbd v1.5.2PL0 Copyright (c) Steve Scherf et al.
# Submitted via: audiograbber 1.83.01
#
DISCID=150bbc12
DTITLE=Billie Jo Spears - Autograph Collection CD2
DYEAR=2006
DGENRE=Country
TTITLE0=It Could 'A Been Me
TTITLE1=What I've Got In Mind
TTITLE2=I Stayed Long Enough
TTITLE3=Silver Threads and Golden Needles
TTITLE4=Come On Home
TTITLE5=I'll Never Be Free Again
TTITLE6=I Fall To Pieces
TTITLE7=Tips And Tables
TTITLE8=Which Way Are You Going Billy
TTITLE9=Stand By Your Man
TTITLE10=Look They've Done To My Song
TTITLE11=Stepchild
TTITLE12=That Man
TTITLE13=Cryin' Time
TTITLE14=Thanks For Hangin' 'Round World
TTITLE15=Fever
TTITLE16=You Couldn't Even Light His Candle
TTITLE17=Tennessee Waltz
EXTD=
EXTT0=
EXTT1=
EXTT2=
EXTT3=
EXTT4=
EXTT5=
EXTT6=
EXTT7=
EXTT8=
EXTT9=
EXTT10=
EXTT11=
EXTT12=
EXTT13=
EXTT14=
EXTT15=
EXTT16=
EXTT17=
PLAYORDER=
